<?xml version="1.0" encoding="utf-8"?>
<!-- Generator: Adobe Illustrator 26.0.0, SVG Export Plug-In . SVG Version: 6.00 Build 0)  -->
<svg version="1.1" id="Layer_1" xmlns="http://www.w3.org/2000/svg" xmlns:xlink="http://www.w3.org/1999/xlink" x="0px" y="0px"
	 viewBox="0 0 179 58.2" style="enable-background:new 0 0 179 58.2;" xml:space="preserve">
<style type="text/css">
	.st0{enable-background:new    ;}
	.st1{fill:#262261;}
	.st2{fill:#E6E7E8;stroke:#00ADEE;stroke-miterlimit:10;}
	
		.st3{opacity:0.1;clip-path:url(#SVGID_00000174601396860815536860000001182196621225328306_);fill:#231F20;enable-background:new    ;}
	.st4{opacity:0.2;fill:#FFFFFF;enable-background:new    ;}
	.st5{fill:url(#SVGID_00000135656139010089282650000012475457052336704161_);}
	.st6{opacity:0.2;fill:url(#SVGID_00000091714272548282901080000004553058332064672154_);enable-background:new    ;}
	.st7{fill:#FFFFFF;}
	.st8{opacity:0.2;fill:#BABCBE;enable-background:new    ;}
	.st9{fill:#00ADEE;}
	.st10{fill:#6D6E70;}
	.st11{font-family:'TrebuchetMS';}
	.st12{font-size:23px;}
	.st13{fill:#462666;}
	.st14{font-family:'ArialMT';}
	.st15{font-size:11px;}
	.st16{letter-spacing:1;}
</style>
<g class="st0">
	<g>
		<path class="st1" d="M167.1,24.1c-19.8,6.6-29.3,17.6-27,23.1l0.2,0.3c1.5,2.6,1.6,2.7,2.6,4.1l1.5,1.7
			C138.9,45.8,149.7,32.2,167.1,24.1"/>
	</g>
</g>
<path class="st2" d="M173.3,41c0,2.2-2.1,4-4.6,4H9.6c-2.6,0-4.6-1.8-4.6-4V7.5c0-2.2,2.1-4,4.6-4h159.1c2.6,0,4.6,1.8,4.6,4
	L173.3,41L173.3,41z"/>
<g>
	<g>
		<defs>
			<path id="SVGID_1_" d="M79.8,41.3c-0.1,0-0.2-0.1-0.2-0.2c-0.4-0.5-1-0.6-1.7-0.6c-0.2,0-0.4,0-0.6-0.1c-0.6-0.3-1.2-0.5-2-0.9
				c0-0.2,0-0.5,0-0.8c0-0.7-0.8-1.6-1.3-1.4c-0.8,0.3-1-0.3-1.3-0.8c-0.2-0.4-1.7-1.4-2.1-1.2c-0.5,0.2-0.7,0-1-0.3
				c-0.2-0.2-0.5-0.4-0.7-0.7c-0.1,0.2-0.3,0.3-0.4,0.4c-0.2-0.2-0.4-0.4-0.7-0.6C67.2,35,66.6,35.5,66,36c-0.1-0.2-0.3-0.5-0.4-0.5
				c-0.4,0.1-0.8,0.3-1.3,0.4c0-0.3-0.1-0.7,0-1c0.3-1.2-0.1-1.6-1.3-1.7c-0.1,0-0.3,0-0.4-0.1c0.1-0.7,0.3-1.3,0.4-2
				c-0.9-0.1-1.7-0.2-1.9,0.9c-0.1,0.3-1,0.3-1.1-0.1C60,31.4,60,30.7,60,30c0-0.3,0-0.5,0-0.8c0-0.2,0.1-0.5,0.2-0.6
				c0.8-0.6,1.7-0.5,2.5,0c0.3-0.4,1.5-0.6,1.8-0.3c0.1,0.1,0.3,0.3,0.2,0.5c-0.1,0.7,0.4,0.9,0.9,1.2c0-0.6-0.1-1.2-0.2-1.8
				c0-0.2-0.1-0.3-0.1-0.5c0.1-0.8,0.7-1.2,1.3-1.5c0.6-0.2,0.7-0.5,0.5-1c0.5-0.1,0.4-0.2,0.6-0.7c0.3-0.7,0.5-1.5,1.5-1.6
				c0.1,0,0.2-0.1,0.3-0.2c-0.1,0-0.1-0.1-0.2-0.1c0.1-0.3,0.1-0.7,0.3-0.9c0.5-0.3,1-0.5,1.6-0.7c-0.1,0.3-0.1,0.4-0.2,0.7
				c0.6-0.3,1-0.6,1.6-0.9c-1.1-0.4-1.7-0.8-0.2-1.3c0-0.2,0-0.4-0.1-0.5c0.7-0.3,1.3-0.5,2-0.8c-0.5,0.8-0.9,1.4-1.4,2.1
				c0.5,0,1.1-0.1,1.1,0c0.3,0.7,0.8,0.4,1.5,0.5c-0.4-0.6-0.6-1.1-0.9-1.6c-0.1-0.2-0.1-0.4-0.1-0.6c0-0.4,0-0.8,0-1.2
				c0-0.2-0.3-0.4-0.4-0.5c-0.2-0.1-1.1-1-1-1.3c0.1-0.9-0.4-1.4-1-2c0,0.2-0.1,0.4-0.1,0.6c-0.4,0-0.7,0-1.1,0c0-0.5,0-1,0-1.3
				c-0.4-0.2-0.6-0.4-0.9-0.5c-0.4-0.1-0.8-0.3-1.3-0.3c-0.2,0-0.5,0.3-0.5,0.5c-0.1,0.9-0.2,1.9-0.3,2.9c-0.2,0-0.5,0-0.8,0
				c0.2,0.3,0.3,0.4,0.4,0.4c-0.2,0.6-0.3,1.1-0.4,1.6c-0.3-0.4-0.4-0.8-0.4-1.2c-0.1-0.3-0.1-0.6-0.6-0.5c-0.4,0-0.8-0.1-1.1-0.3
				c-0.4-0.2-0.8-0.5-1.1-0.7c-0.1-0.3-0.3-0.6-0.5-1c0.2-0.3,0.5-0.6,0.8-0.9c0.6-0.6,1.5-1.1,1.8-1.8c0.3-0.7,0.9-0.8,1.3-0.8
				c1.2,0,0.7-0.9,0.8-1.4c0.1-0.2-0.2-0.5-0.3-0.8c0.8,0.3,1.8,0,2.5,0.9c0.3,0.4,0.3,0.8-0.1,1c-0.4,0.2-0.8,0.4-1.1,0.6
				c-0.2,0.1-0.2,0.3-0.3,0.5c0.2,0.1,0.4,0.3,0.5,0.3c0.7-0.1,1.2,0.2,1.8,0.7c0.4,0.4,0.9,0.6,1.5,1c-0.1-1,0.6-1.8-0.1-2.6
				c0.3,0.1,0.7,0.3,1.1,0.5c0.1-0.5,0.4-1.2,0.2-1.5c-0.3-0.4-0.9-0.6-1.4-0.9c0.4-0.8-0.1-1.5-1.1-1.6c-0.2,0-0.5-0.1-0.6-0.3
				c-0.4-0.5-0.8-0.5-1.3-0.4c-0.2,0-0.5,0-0.5-0.1c-0.4-0.5-0.8-0.4-1.2-0.1c-0.3-0.8-0.6-0.8-1.2-0.2c-0.2,0.2-0.4,0.5-0.5,0.8
				c-0.1,0.5,0,1,0,1.5c-0.4-0.4-0.8-0.8-1.2-1.2c-0.2-0.1-0.6-0.1-0.7,0c-0.1,0.2-0.3,0.6-0.1,0.8c0.5,0.5,0.2,0.9-0.1,1.5
				c-0.2-0.3-0.3-0.6-0.4-0.8c-0.4,0.2-0.9,0.5-1.3,0.5c-0.4,0-0.8-0.4-1.2-0.6c0-0.1,0.1-0.1,0.1-0.2c0.3,0.1,0.7,0.2,1,0.2
				c0.2-0.1,0.3-0.5,0.5-0.9c0.3-0.2,0.9-0.5,1.4-0.8c0.1-0.1,0.2-0.4,0.2-0.6c0-0.2-0.1-0.5-0.2-0.7c-1.2,0-2.4-0.3-3.2,0.7
				c-0.4-0.2-0.8-0.3-1.1-0.5c0.4-0.1,0.8-0.3,1.2-0.3c0.9,0,1.7-1.1,2.7-0.3c0.1,0,0.2,0,0.3,0c0.2-0.1,0.5-0.2,0.5-0.4
				c0-0.3-0.1-0.6-0.2-0.8c0-0.1-0.4,0-0.6,0.1c-0.5,0.2-1,0.4-1.5,0.6c0-0.3,0-0.5-0.1-0.7c-0.1-0.5-0.4-0.4-0.6-0.1
				c-0.1,0.2,0,0.5-0.1,0.8c-0.9-0.1-2-0.4-2.5,0.6C58.1,5,57.6,5,57,4.9c-1-0.3-0.7,0.8-1.2,1c-0.8,0.5-0.1,1,0,1.5
				c0.5-0.2,0.9-0.3,1.4-0.5c-0.1,0.8,0.6,0.2,0.9,0.5c-0.2,0.1-0.3,0.2-0.6,0.3c0.6,0.3,1.1,0.6,1.6,0.8C59.6,8.7,60,8.8,60.4,9
				c0.2,0.1,0.2,0.5,0.2,0.6C59.7,9.3,59,9,58.2,8.8c-0.6-0.2-1.3-0.2-1.8-0.5c-0.4-0.2-0.6-0.5-1,0c-0.1,0.1-0.2,0.1-0.3,0.1
				c-0.2-0.3-0.3-0.5-0.4-0.8c-0.6,0.5-1.2,0.9-2,0.5c-0.1,0-0.2,0-0.4,0c-0.5,0-1,0-1.6,0c-0.7-0.1-1.4-0.3-2.2-0.4
				c-0.6-0.1-1.2-0.2-1.7-0.3c-0.2,0-0.5-0.1-0.7,0c-0.6,0.1-1.2,0.2-1.7,0.4c-0.5,0.1-0.9,0.3-1.4,0.4c0,0.1,0,0.2,0,0.3
				c0.5,0.3,1,0.6,1.6,0.9c-0.3,0.1-0.6,0.4-0.8,0.3c-1.2-0.4-1.9,0.6-2.8,0.6c0.4,0.4,0.8,0.8,1.3,1.3c0.5,0,1.1,0,1.8,0
				c-0.2,0.2-0.4,0.4-0.7,0.5c-0.7,0.2-1.4,0.3-2.1,0.6c-0.5,0.2-0.9,1-0.6,1.4c0.2,0.3,0.4,0.6,0.6,0.9c0.3,0.3,0.6,0.6,0.9,0.8
				c0.4-0.1,0.9-0.2,1.3-0.3c0.1,0.1,0.1,0.2,0.2,0.4c-0.8,0.7-1.6,1.4-2.4,2.1c-0.4,0.3-0.9,0.6-1.3,0.9c0,0.1,0.1,0.1,0.1,0.2
				c0.4-0.1,0.9,0,1.3-0.2c0.6-0.2,1.1-0.5,1.6-0.9c0.9-0.8,1.7-1.6,2.6-2.5c0.1,0.1,0.2,0.1,0.2,0.2c-0.2,0.3-0.3,0.6-0.5,0.9
				c0,0.1,0.1,0.1,0.1,0.2c0.7-0.3,1.5-0.5,2.2-1c0.2-0.2,0.1-0.9,0.1-1.4c0.8-0.5,1.5-0.3,2.1,0.4c0.2,0.2,0.5,0.3,0.7,0.5
				c0.6,0.3,1,0.8,1,1.5c0,0.1,0.1,0.2,0.2,0.4c0.1-0.3,0.2-0.5,0.3-0.7c0.1,0.6,0.2,1.3,0.3,1.9c0.1,0.8,0.2,1.6,0.2,2.3
				c0,0.9-0.4,1.9-0.3,2.8c0.1,1-0.2,2.2,1.1,2.8c0.1,0.1,0.2,0.3,0.2,0.4c0.3,1.1,0.7,2.2,1.4,3.1c0.2,0.3,0.6,0.5,0.9,0.8
				c0-0.1,0.1-0.1,0.1-0.2c-0.1-0.4-0.2-0.8-0.4-1.4c0.4,0.4,0.6,0.7,0.8,0.9c0.4,0.4,0.6,0.8,0.7,1.4c0,0.5,0.3,1.2,0.7,1.4
				c0.8,0.5,1.7,1.1,2.8,0.9c0.2,0,0.4,0.1,0.5,0.2c0.3,0.6,0.8,0.8,1.4,1c0.2,0,0.3,0.2,0.5,0.3c0.6,0.5,1.1,1.1,1.8,1.5
				c0.2,0.1,0.6,0,1,0c0.5,0.7,0.4,1.6-0.1,2.4c-0.4,0.7-0.3,1.3-0.3,1.9c0,0.2,0,0.3,0.1,0.5c0.1,0.2,0.1,0.4,0.3,0.6
				c0.1,0.1,0.3,0.2,0.4,0.2c-0.2,0.3-0.5,0.6-0.5,0.8c0.1,0.7,0.6,1.2,1.3,1.4c0,0.3-0.1,0.5-0.1,0.6c0.3,0.4,0.7,0.9,1.1,1.2
				c0.5,0.4,0.9,0.8,1,1.4c0,0.5,0,1,0,1.4c0,0.7,0.1,1.5,0.2,2.2c0,0.2,0.1,0.5,0,0.7c-0.5,0.8-0.5,1.7-0.6,2.6
				c-0.1,0.6,0.1,0.7,0.8,0.6c-0.3,0.4-0.4,0.7-0.6,0.9c-0.1,0.2-0.3,0.3-0.3,0.5c0.1,0.8,0.1,1.5,0.3,2.3c0.2,1.2,0.3,2.4,1.1,3.4
				c0.5,0.6,1.8,0.9,2.5,0.4c-0.2-0.1-0.3-0.2-0.5-0.3c-0.8-0.5-1.1-1.6-0.3-2.2c0.7-0.6,0.6-0.9,0.1-1.4c0.6-1.3,0.7-1.6,0.1-2.2
				c0.8,0.1,0.9-0.4,0.9-0.8c0.6-0.2,1.2-0.3,1.5-0.7c0.2-0.3,0.1-0.9,0.1-1.4c0.7,0.1,1.2-0.1,1.6-0.9c0.3-0.7,0.9-1.2,1.1-1.9
				c0.2-0.9,0.5-1.5,1.5-1.8c0.2-0.1,0.6-0.2,0.6-0.4c0.2-0.7,0.3-1.4,0.4-2.1c0.1-0.5,0.2-0.9,0.4-1.4c0.4-0.9,1-1.7,1.3-2.6
				c0.1-0.4-0.1-0.9-0.2-1.4C80.5,41.3,80.1,41.4,79.8,41.3z M62.1,6.5c0.3,0.1,0.6,0.2,0.9,0.3c0,0.1,0,0.1,0.1,0.2
				c-0.3,0.1-0.6,0.3-1,0.5C62.1,7,62.1,6.8,62.1,6.5z M84.1,7.7c0-0.1,0-0.2,0-0.2c0.3,0,0.6-0.1,0.9,0.1C85.8,8,85.8,8,86,7.3
				c0,0,0,0,0-0.1c0.1,0,0.3,0,0.5,0.1c-0.1-0.3-0.2-0.5-0.3-0.8C87,6.4,87.1,5.7,87,5.2c-0.1-1-0.2-1,0.8-1.2C88,4,88,4,88.2,3.8
				c-0.4-0.3-0.8-0.5-1.1-0.6c0.2-0.2,0.6-0.5,0.6-0.7c-0.1-0.7,0.5-0.8,0.9-0.9c0.2-0.1,0.4,0,0.6,0c0.1,0,0.2-0.2,0.4-0.2
				C89.6,1.2,89.5,1,89.4,1c-0.3-0.2-0.5-0.3-0.8-0.4c-0.2-0.1-0.5-0.1-0.7-0.1c-0.4,0.1-0.8,0.2-1.1,0.3c0-0.1-0.1-0.1-0.1-0.2
				c0.5-0.2,1-0.5,1.6-0.8c-0.3-0.2-0.5-0.5-0.7-0.5C86.9-0.9,86.2-1,85.6-1c-1.6,0-3.3,0.1-4.9,0.2c-0.4,0-0.8,0.2-0.6,0.8
				c0.1,0.2,0.1,0.4,0.1,0.7c-2.3-0.7-4.3,0.1-6.2,1.2c0.2,0.1,0.3,0.2,0.5,0.3c0,0.1-0.1,0.1-0.1,0.2c-0.8,0.3-1.7,0.5-2.5,0.8
				c0,0.1,0,0.2,0,0.3c0.8,0,1.5,0.1,2.3,0.1c0,0.1,0,0.1,0,0.2c-0.6,0.1-1.2,0.1-1.8,0.2c0,0.1,0,0.2,0,0.4
				c0.5,0.2,0.9,0.4,1.4,0.5c0.2,0.1,0.5-0.2,0.7-0.1c0.5,0.1,1,0.3,1.5,0.5c0.1,0.4,0.3,0.9,0.4,1.3c0.1,0.3,0,0.5,0,0.8
				c0.2-0.1,0.5-0.2,0.8-0.3c0.4,0.8-0.6,0.3-0.7,0.8c0.4,0.2,0.8,0.5,1.3,0.8c-0.3,0.2-0.6,0.3-0.7,0.5c-0.2,0.4-0.6,1-0.5,1.2
				c0.6,0.7,0.4,1.4,0.5,2.2c0,0.5,0.1,0.9,0.8,1.1c0.4,0.1,0.8,0.3,1.2,0.4c0,0.1,0.1,0.2,0.1,0.2c0.4-0.9,0.8-1.8,1.2-2.7
				c0.1-0.3,0.4-0.9,0.5-0.9c1.1,0.1,1.9-0.6,2.7-1.1c0.7-0.4,1.3-0.9,2.1-1.4C85,8,84.5,7.8,84.1,7.7z M86.4,0.1
				c-0.6,1.1-1.5,0.1-2.2,0.5c0-0.1,0-0.2,0-0.3C84.9,0.2,85.7,0.2,86.4,0.1z M144.5,50c0.3,0.9,0.3,1.9-0.2,2.6
				c-0.7,1.1-1.2,2.3-2.4,3c-0.1,0-0.1,0.1-0.2,0.1c-0.9,0-1.9,0.1-2.7-0.6c0-0.3,0.1-0.6,0.1-0.9c-0.8,0-1.3-0.3-1.6-1
				c-0.1-0.2-0.5-0.4-0.7-0.4c-0.8-0.1-1.5,0-2.1,0.6c-0.1,0.1-0.4,0.1-0.6,0.2c-0.4,0.1-0.9,0.3-1.3,0.4c-0.3,0.1-0.7,0.1-1-0.1
				c-0.2-0.1-0.2-0.5-0.2-0.7c-0.1-0.5-0.1-1-0.1-1.5c-0.1-0.7-0.2-1.5-0.3-2.2c0-0.1,0.3-0.4,0.4-0.4c0.7,0,1-0.4,1.1-1.1
				c0.1-0.4,0.3-0.9,0.9-0.4c0.2-0.9,0.4-1,1.3-1c0.2,0,0.5-0.3,0.5-0.4c0.1-0.7,0.4-1.1,1.2-1.1c0.2,0,0.5-0.2,0.6-0.3
				c0.1-0.9,0.6-0.6,1.2-0.5c0.4,0.1,0.8,0,1.2,0c0.2,0,0.5,0.2,0.8,0.3c-0.9,0.7-0.9,0.7-0.1,1.2c0.3,0.2,0.6,0.3,0.8,0.4
				c0.1-0.4,0.2-0.7,0.3-1.1c0.1-0.4,0.1-0.9,0.2-1.4c0.8,0.7,0.9,1.6,1.3,2.4c0.5,0.8,0.7,1.7,1,2.7c0,0,0.2,0,0.5,0
				C144.3,49.2,144.4,49.6,144.5,50z M65.6,2c-0.3-0.6,0.3-0.8,0.5-1.1c0-0.1,0.5-0.1,0.7,0c0.3,0.2,0.6,0.5,0.9,0.8
				c0.1,0,0.1-0.1,0.2-0.1c-0.2-0.2-0.4-0.4-0.5-0.6c-0.3-0.4-0.2-0.8,0.3-0.8c1.5-0.2,3-0.5,4.5-0.3C73,0,73.9-0.2,74.8-0.2
				c0.3,0,0.6,0.1,1,0.2c-0.3,0.6-0.3,0.6-1.9,0.8c0.2,1-0.7,1-1.2,1.3C72,2.4,71.3,2.6,71,3.5c-0.1,0.4-0.8,0.6-1.1,0.9
				c0.3,0.2,0.4,0.4-0.2,0.6c-0.3,0.1-0.4,0.4-0.7,0.5c-0.6,0.2-2.8-0.3-3.4-0.9c0.9-0.5,1.7,0.5,2.6-0.1c-0.6-0.1-1.1-0.2-1.7-0.3
				c-0.1-0.6,0.2-0.9,1.1-0.8c-0.1-0.1-0.2-0.3-0.4-0.4c0.4-0.3,0.7-0.5,1.1-0.8c-0.8-0.1-1.2,0.3-1.5,1c-0.3-0.1-0.5-0.2-0.6-0.2
				C65.9,2.7,65.8,2.3,65.6,2z M140.5,42.6c0.2-0.6-0.4-1-1-1.4c-0.6-0.3-1-1-1.8-0.6c0.1-0.6,0.3-0.8,0.8-0.6
				c0.2,0.1,0.5,0.1,0.7,0c0.9-0.7,1.7-0.1,2.4,0.3c0.1,0,0.1,0.2,0.2,0.2c0.9,0.2,1.2,1.1,1.8,1.5c0.4,0.2,0.5,0.8,0.7,1.2
				c0,0.1-0.1,0.1-0.1,0.2c-0.3-0.2-0.5-0.3-0.8-0.5c-0.3-0.3-0.6-0.6-1,0c-0.1,0.1-0.5,0.1-0.7,0.1C141.3,43,141,42.8,140.5,42.6z
				 M95.4,1.7c0-0.1,0.4-0.5,0.5-0.5c0.4,0.1,0.8,0.4,1.3,0.6c0-0.1,0-0.3,0-0.6C97.6,1.1,98,0.9,98,1.7c0,0.1,0.3,0.3,0.5,0.4
				c0.7,0.1,1.2,0.5,1.6,1c0.2,0.2,0.3,0.6,0.4,0.8c-0.9,0.4-1.3-0.1-1.7-0.8c-0.1,0.3-0.1,0.5-0.1,0.7c-0.1,0.3-0.1,0.5-0.2,0.8
				c-0.1,0.1-0.3,0.3-0.3,0.3c-0.5-0.2-0.9-0.4-1.4-0.7c-0.1,0,0-0.4,0.1-0.5c0.1-0.2,0.3-0.4,0.5-0.6c0-0.1-0.1-0.1-0.1-0.2
				c-0.4,0.2-0.7,0.4-1.2,0.6c0-0.3,0-0.5,0-0.6C95.8,2.4,95.5,2.1,95.4,1.7z M133.1,37.1c0.4,0.2,1.1,0.3,0.5,1.1
				c-0.3,0.4-0.2,1.1-0.3,1.7c-0.1,0.4-0.1,0.8-0.3,1.2c-0.1,0.2-0.4,0.3-0.5,0.4c-0.8,0-2.3-1.3-2.3-1.9c0-0.3,0.2-0.6,0.5-0.8
				c0.4-0.3,0.9-0.6,1.3-0.9c0.1-0.1,0.3-0.2,0.3-0.4C132.5,37.2,132.7,36.9,133.1,37.1z M109.7,44.1c0.8,2.1-0.1,3.8-0.5,5.6
				c-0.1,0.6-0.7,0.6-1.2,0.6c-0.2,0-0.4-0.5-0.5-0.7c-0.1-0.1,0-0.3,0-0.5c0-0.8,0.5-1.5,0.3-2.3c-0.1-0.2,0.3-0.6,0.5-0.7
				c0.6-0.3,0.9-0.7,1-1.3C109.3,44.5,109.5,44.3,109.7,44.1z M93.6,17.2c-0.1,0.4-0.3,0.9-0.4,1.4c-0.8,0-1.5,0.1-2.3,0.1
				c0,0,0-0.1,0-0.1c0.2-0.1,0.4-0.3,0.6-0.4c-0.3-0.5-0.4-1,0.3-1.3c0.4-0.2,0.5-0.3,0-0.6c-0.4-0.2-0.5-0.5-0.4-1
				c0.1-0.3,0.1-0.7,0.2-1.2c0.3-0.1,0.7-0.2,1.2-0.3c-0.2,0.3-0.3,0.5-0.3,0.7C92.8,15.4,93.2,16.3,93.6,17.2z M136.2,26.5
				c0.4-0.1,0.6-0.1,0.8-0.1c-0.2-0.1-0.3-0.3-0.5-0.5c0.2-0.2,0.4-0.3,0.6-0.5c0.7-0.3,1.3-0.6,2-1c0.2-0.1,0.3-0.4,0.3-0.6
				c0-0.5-0.1-1-0.1-1.7c0.3,0.2,0.5,0.3,0.5,0.4c0.2,0.7,0.3,1.5,0.4,2.2c0,0.2-0.1,0.5-0.2,0.6c-0.7,0.3-1.4,0.6-2,0.9
				c-0.4,0.2-0.7,0.5-1.2,0.8C136.7,27,136.5,26.8,136.2,26.5z M129,41.2c0.1,0.3-0.4,0.5-0.7,0.3c-0.5-0.5-1.3-0.7-1.1-1.7
				c0-0.2-0.2-0.5-0.4-0.5c-0.8-0.3-1-1-1.3-1.7c1.3-0.5,1.5,0.7,2.1,1.2c0.2,0.1,0.2,0.4,0.4,0.5C128.9,39.6,128.9,40.5,129,41.2z
				 M108.4,7.4c0.6-2.6,2.5-3.1,4.9-3.5c-0.4,0.7-0.7,1-1.3,1c-0.3,0-0.6,0.2-0.8,0.3c-0.3,0.2-0.6,0.5-1,0.6
				c-0.8,0.3-0.9,0.7-0.4,1.4c0.2,0.2,0.3,0.4,0.5,0.6C109.6,8.3,109,8.1,108.4,7.4z M87.3,11.7c-0.2,0-0.4,0.1-0.5,0.1
				c-0.3-0.2-0.5-0.4-0.9-0.7c0-0.1,0.1-0.3,0.1-0.5c-0.1,0-0.3-0.1-0.4-0.1c0.2-0.3,0.4-0.6,0.6-0.7c0.8,0.1,1.5,0.3,2.3,0.4
				c0,0,0.1,0.2,0.2,0.4c0.3,0.6-0.1,1.2-0.8,1.2C87.7,11.8,87.5,11.7,87.3,11.7z M67.3,32.6c0.1-0.2,0.1-0.4,0.2-0.7
				c-0.8,0.1-1.4-0.1-2-0.7c-0.3-0.3-1,0-1.5,0c0-0.5,0.3-0.7,0.8-0.7c1.1-0.1,2.1,0.2,2.8,1.1c0.1,0.1,0.5,0.3,0.7,0.2
				c0.7-0.2,0.9,0.3,1.3,0.8c-0.5,0.1-0.8,0.3-1.1,0.3C68.1,32.9,67.7,32.7,67.3,32.6z M150.1,55.7c0.2,0.4,0.5,0.7,0.5,1
				c0,0.3-0.4,0.5-0.6,0.7c-0.4,0.4-0.8,0.8-1.2,1.2c-0.2,0.3-0.4,0.6-0.9,0.4c-0.2-0.1-0.5,0-0.8,0.1c0.3-0.6,0.5-1.2,1.2-1.6
				C149,57.2,149.4,56.4,150.1,55.7z M98.5,0.9c0.7,0,1.3-0.2,1.9-0.1c0.6,0.1,1.2,0.3,1.8,0.5c-0.2,0.6-1.1,0.9-2,0.8
				C99.3,1.8,98.5,1.3,98.5,0.9z M152.8,54.2c-0.9,0.5-0.9,1.8-1.9,2.2c0.2-0.5,0.3-1-0.3-1c0.2-0.7,0.4-1.3,0.6-2.1
				c0.2,0.3,0.4,0.6,0.7,0.8C152.1,54.2,152.4,54.1,152.8,54.2z M135.9,39.7c-0.4,0.1-0.7,0.2-0.9,0.2c0.2,0.4,0.4,0.8,0.6,1.2
				c0,0.1-0.1,0.1-0.1,0.2c-0.3-0.1-0.6-0.2-0.9-0.4c-0.1,0.2-0.2,0.4-0.3,0.7c-0.9-0.8-0.6-1.9,0.2-2.7c0.2,0.1,0.4,0.2,0.6,0.3
				C135.3,39.4,135.5,39.5,135.9,39.7z M132.6,43.2c-0.7-0.1-1.3-0.3-2-0.4c-0.3-0.1-0.7,0-1-0.1c-0.2-0.1-0.5-0.4-0.5-0.6
				c0.1-0.4,0.4-0.4,0.7-0.2c0.7,0.2,1.4,0.3,2.1,0.5c0.3,0.1,0.5,0.4,0.8,0.6C132.7,43,132.6,43.1,132.6,43.2z M119,2.5
				c-0.1,0-0.1-0.1-0.2-0.1c0.1-0.2,0.2-0.6,0.3-0.7c0.6-0.4,1.7-0.2,2.4,0.6C120.7,2.9,119.8,2.3,119,2.5z M139.6,21.9
				c-0.2,0.1-0.4,0.3-0.6,0.4c-0.1,0-0.1,0-0.2-0.1c0.1-0.5,0.2-1.1,0.3-1.6c0,0,0.2-0.1,0.2-0.1c0.5,0.2,1,0.4,1.5,0.5
				c-0.2,0.4-0.5,0.7-0.7,1.1C140,22.2,139.8,22,139.6,21.9z M136,34c0.5,0,1.2,0.7,1.4,1.4c-0.5,0.2-0.9,0.4-1.5,0.6
				c0-0.2,0-0.4,0-0.6c-0.2,0-0.4,0.1-0.7,0.1c0-0.1-0.1-0.1-0.1-0.2c0.2-0.2,0.5-0.4,0.8-0.7C135.9,34.5,135.9,34.2,136,34z
				 M133.1,4.1c0.8,0,1.6-0.4,2.2,0.3c-0.3,0.7-0.8,1-1.6,0.6C133.3,4.8,132.8,4.8,133.1,4.1z M89.7,17.3c-0.1-0.8,0.4-1.2,1.3-1.1
				c0,0.4,0.1,0.8,0,1c-0.2,0.3-0.6,0.4-0.9,0.5C90,17.7,89.7,17.4,89.7,17.3z M141.6,57c-0.2,0.2-0.4,0.5-0.7,0.5
				c-0.1,0-0.4-0.3-0.5-0.4c-0.2-0.2-0.3-0.5-0.5-0.8c0.6,0,1.1,0,1.7,0C141.6,56.5,141.7,56.8,141.6,57z M68,12.1
				c-0.2,0-0.4-0.1-0.6-0.1c-0.2,0-0.4-0.1-0.5,0c-0.4,0.6-0.7,0.1-1.1,0C67.1,10.7,67.1,10.7,68,12.1z M135.1,32.1
				c0.5,0.5,0,1-0.4,1.5c-0.3-0.5-1.2-0.6-0.6-1.4C134.3,32.1,135,32,135.1,32.1z M138.9,39.6c-0.5,0.1-1,0.2-1.5,0.3
				c-0.1-0.1-0.1-0.2-0.2-0.2c0.2-0.2,0.3-0.5,0.5-0.6c0.3-0.1,0.7,0.1,1.1,0.1C138.9,39.3,138.9,39.4,138.9,39.6z M133.3,30
				c0.3-0.1,0.6-0.2,0.9-0.3c0,0.5,0,0.9,0,1.4c-0.1,0-0.2,0-0.3,0C133.7,30.8,133.5,30.5,133.3,30z M149.1,12.4
				c-0.3-0.4-0.6-0.7-0.8-1c0.6-0.6,1-0.7,1.4-0.3c0.2,0.2,0.6,0.3,1,0.6c-0.1-0.7,0-1.1-0.2-1.4c-0.2-0.3-0.7-0.3-1.1-0.5
				c0-0.1-0.1-0.4-0.3-0.5c-0.7-0.3-1.4-0.5-2.1-0.7c-0.2-0.1-0.4-0.1-0.6-0.2c-0.8-0.4-1.6-0.6-2.5-0.5c0,0.3,0,0.5,0,0.7
				c-0.3-0.2-0.6-0.5-0.9-0.5c-0.5,0-1,0.1-1.5,0.1c-0.2,0-0.6-0.2-0.7-0.4c-0.4-0.7-1-0.8-1.5-0.2c-0.9-0.3-1.9-0.4-2.5-1
				c-0.8-0.7-1.5-0.6-2.4-0.5c0,0.2,0,0.4,0,0.5c-1.3,0-2.5,0-3.7,0c-0.1,0-0.2,0-0.4-0.1c-0.8-0.2-1.6-0.5-2.5-0.7
				c-0.6-0.1-1.2-0.2-1.8-0.3c0-0.1,0.1-0.2,0.1-0.3c0-0.3,0.2-0.7,0-0.9c-0.3-0.4-0.5-0.8-1.2-0.6c-0.4,0.1-1,0-1.4-0.2
				c-0.8-0.5-0.8-0.5-1.1,0.3c-0.2,0.6-0.9,0.8-1.3,0.4c-0.7,0.2-1.3,0.3-1.8,0.5c-0.4,0.2-0.8,0.6-1.2,0.8
				c-0.2,0.1-0.4,0.2-0.6,0.3c-0.2,0.1-0.4,0.2-0.5,0.2c0.1,0.1,0.2,0.3,0.4,0.4c0.1,0.1,0.2,0.2,0.3,0.4c-0.6-0.2-1-0.4-1.4-0.5
				c-0.1,0.3-0.2,0.6-0.3,0.8c-0.1,0-0.1,0-0.2,0c-0.1-0.2-0.1-0.5-0.2-0.6c-0.4,0-0.8,0.1-0.9,0c-0.6-0.6-0.8-0.6-1.2,0.2
				c-0.6,1-1.1,1.2-2.2,0.9c-0.2-0.1-0.5,0-0.7,0c0,0.1,0,0.1,0,0.2c0.2,0.1,0.3,0.3,0.5,0.4c-1.4-0.1-2.7,0.3-3.8,1.4
				c0-0.4-0.1-0.7-0.1-1c-0.3,0-0.5,0-0.8,0c-0.1,1.1-0.2,1.3-0.9,1.3c0-0.2,0-0.6-0.1-0.7c-0.4-0.3-0.9-0.5-1.4-0.8
				c-0.5-0.3-1.1-0.4-1.5-0.8c-0.7-0.6-1.5-0.8-2.3-0.3c-0.3,0.2-0.7,0.3-1,0.5c-0.7,0.5-1.5,0.9-1.9,1.5c-0.4,0.8-1,1.4-1.6,2
				c-0.8,0.7-1.2,1.3-0.9,2.4c0.2,0.7,0.2,1.3,1,1.2c-0.1,0.5-0.2,0.9-0.4,1.5c-0.1,0-0.3,0.1-0.6,0.2c-0.3,0.1-0.5,0.3-0.8,0.5
				c-0.4,0.4-0.7,0.8-1.1,1.2c0,0,0,0,0,0c0,0,0,0,0,0c-0.7,0.4-1.4,0.8-2.2,1.3c0.3,0.1,0.5,0.2,0.7,0.2c0.6,0,0.8,0.5,1,0.9
				c0.2,0.4-0.1,0.9-0.5,0.9c-0.7,0-1.3,0-2.1,0c0,1.1,0,2,0,2.8c0.5,0.1,0.8,0.3,1.2,0.3c0.5,0,1.1,0,1.5-0.3
				c0.3-0.2,0.6-0.8,0.6-1.2c0-0.8,0.6-1.1,1-1.6c0.1-0.1,0.3-0.1,0.4-0.1c0.4,0,0.8,0,1.1,0c0,0.6,0.1,1.3,0.1,2.1
				c1.2-0.3,0.2-1.1,0.6-1.5c0.5,0.3,0.9,0.5,1.3,0.8c0.1,0.1,0.3,0.3,0.3,0.4c0,0.1-0.2,0.2-0.4,0.3c-0.1,0.1-0.2,0.1-0.4,0.2
				c0.3,0.2,0.5,0.4,0.7,0.5c-0.1-0.1-0.1-0.2-0.2-0.3c0.5-0.4,1-0.8,1.4-1.3c0.1,0,0.2,0.1,0.3,0.1c0.2,0.5,0.3,1.1,0.5,1.7
				c0.9,0.1,1,0.1,0.9-0.8c0-0.2-0.1-0.4,0-0.5c0.1-0.2,0.3-0.3,0.4-0.4c-0.1,2,0.9,2.2,2.4,1.9c0,0.2,0,0.4,0,0.7
				c0.3-0.1,0.4-0.2,0.5-0.3c0.1-0.1,0.2-0.3,0.2-0.5c0.1,0,0.2,0.1,0.2,0.1c-0.1,0.6-0.2,1.2-0.3,1.7c0,0.1-0.3,0.3-0.5,0.3
				c-0.6-0.1-1.2-0.2-1.8-0.3c-1-0.2-2.1-0.8-2.6,0.6c-0.7-0.3-1.4-0.6-2-0.9c-0.6-0.3-0.9-0.7-0.8-1.4c0-0.2,0-0.3,0-0.5
				c-1.4,0.2-2.8,0.3-4.1,0.5c-0.5,0.1-1,0.5-1.5,0.1c-0.1,0-0.2,0-0.3,0c-0.4,0.6-1.3,0.8-1.4,1.8c-0.1,0.7-0.3,1.4-0.9,1.9
				c-0.2,0.2-0.5,0.4-0.6,0.7c-0.7,1.4-0.9,3-0.8,4.5c0,0.3-0.1,0.8,0.1,1c0.7,0.8,0.8,1.9,1.8,2.5c0.8,0.5,2.5,0.9,3.3,0.5
				c0.1,0,0.2-0.1,0.2-0.2c0.3-0.4,0.6-1,1,0c0,0.1,0.2,0,0.3,0.1c0.7,0.2,1.3,0.4,2.1,0c0,0.7-0.2,1.3-0.3,2c0,0.2-0.1,0.5,0,0.7
				c0.5,0.8,0.7,1.7,1,2.6c0.4,1.3,0.3,2.5,0,3.7c-0.1,0.5-0.1,0.8,0.3,1.2c0.3,0.3,0.6,0.7,0.6,1.1c0.2,1.5,0.7,2.9,1.2,4.2
				c0.2,0.5,0.4,0.9,1.1,0.5c0.4-0.2,0.9-0.5,1.4-0.6c1.6-0.3,1.9-1.7,2.7-2.7c0.2-0.3,0.2-0.9,0.5-1c0.6-0.2,0.6-0.7,0.6-1.1
				c0.1-0.8,0.3-1.5,1.1-2c0.2-0.1,0.4-0.3,0.4-0.5c0.1-1,0.3-2.1,0.2-3.2c-0.2-1.2,0.3-2.2,1-2.9c1.2-1.1,2-2.4,2.6-3.9
				c0.1-0.3,0-0.7,0-1.1c-0.3,0-0.7,0-1,0.1c-0.9,0.3-1.5,0.1-1.9-0.7c-0.1-0.2-0.3-0.5-0.5-0.7c-0.7-0.5-0.8-1.3-1.1-2
				c-0.1-0.2-0.2-0.5-0.3-0.7c-0.5-0.4-0.5-0.9-0.4-1.5c0.4,0.6,0.7,1.1,1,1.7c0.5,0.9,1.4,1.7,1.6,2.9c0,0.3,0.4,0.5,0.6,0.7
				c0.6-0.2,1-0.4,1.4-0.6c0.9-0.5,1.8-1,2.7-1.6c0.4-0.3,0.7-0.9,1-1.4c0.1-0.1-0.3-0.4-0.5-0.7c-0.1-0.2-0.2-0.4-0.2-0.6
				c0,0,0.1-0.1,0.1-0.2c0.1,0.2,0.3,0.4,0.4,0.5c0-0.1,0-0.1,0-0.2c0.8,0,1.6-0.1,2.3,0c0.4,0.1,0.7,0.4,1.1,0.6
				c-0.4,0.4,0.1,0.5,0.3,0.7c0.2,0.2,0.4,0.3,0.5,0.5c0.5,1,0.9,2,1.4,3c0.1,0.3,0.2,0.6,0.3,0.9c0.1,0.3,0.3,0.6,0.5,0.7
				c0.4,0.1,0.5-0.2,0.7-0.6c0.4-0.8,0.1-1.8,0.9-2.5c0.6-0.5,1-1.2,1.5-1.7c0.3-0.3,0.8-0.5,1.2-0.5c0.1,0,0.3,0.5,0.5,0.8
				c0.1,0.2,0.3,0.3,0.5,0.4c-0.3,0.8-0.3,0.8,1,1.1c0.2,0.5,0.5,1,0.6,1.4c0.1,0.2,0.1,0.4,0.1,0.7c0.1,0.6,0,1.3,0.3,1.7
				c0.5,0.7,1.3,1.2,2,1.8c0.1-0.1,0.2-0.1,0.3-0.2c-0.4-0.7-0.7-1.5-1.3-2.2c-0.6-0.7-0.8-1.1-0.4-2c0.5,0.5,1.1,1,1.6,1.5
				c0.9-0.3,1.4-1,1.4-2c0-0.4,0-0.8,0-1.2l0,0c0-0.3,0-0.6,0-0.9c0.2-0.2,0.4-0.6,0.6-0.6c0.8,0,1.2-0.3,1.6-1
				c0.2-0.4,0.6-0.8,0.8-1.2c0.7-1,0.7-2.3-0.1-3.3c-0.1-0.2-0.2-0.6-0.1-0.8c0.2-0.4,0.8-0.7,0.3-1.3c0,0,0.2-0.1,0.3-0.3
				c0.3,0.5,0.8,0.9,0.9,1.3c0.1,0.5,0.3,0.9,0.7,0.8c0.5,0,0.6-0.5,0.5-1c0-0.1-0.1-0.2-0.1-0.3c-0.3-1,0.1-1.8,1-2.4
				c0.2-0.1,0.3-0.2,0.4-0.4c0.5-1,1.3-2,1-3.3c0-0.1,0-0.3,0-0.5c0.1,0,0.1,0,0.2-0.1c0.4,0.7,0,1.9,1.1,2.5
				c-0.1-0.4-0.1-0.6-0.1-0.9c0.7,0.1,0.6-0.3,0.4-0.6c-0.5-0.7-1-1.4-1.1-2.4c0-0.1-0.1-0.3-0.2-0.5c-0.2,0.2-0.3,0.4-0.4,0.4
				c-0.3,0-0.6-0.1-0.8,0c-0.4,0.3-0.7,0.2-1-0.1c0.3-0.5,0.6-0.8,0.7-1.3c0.1-0.6,0.5-0.8,1-0.9c0.5-0.1,1.2-0.1,1.6,0.2
				c0.7,0.3,1.4,0.3,1.9,0.2c0.2-0.5,0.2-0.9,0.4-1.2c0.1-0.1,0.5,0,0.7,0c0.1-0.1,0.3-0.2,0.5-0.4c-0.3,0.7-0.6,1.3-0.9,1.9
				c-0.2,0.4-0.4,0.8-0.3,1.1c0.2,0.8,0.7,1.5,1,2.2c1.1-0.7,1.2-1.9,1.6-2.8c-0.2-0.3-0.5-0.6-0.4-0.9c0-0.3,0.4-0.5,0.6-0.7
				c0.2-0.1,0.5-0.1,0.7,0c0.6,0.1,1,0.1,1.1-0.6c0-0.1,0.3-0.2,0.4-0.2C147.9,12.7,148.5,12.6,149.1,12.4z M96.9,16.4
				c-0.2-0.5-0.4-1.1-0.5-1.7c0.6,0.4,0.4,1.4,1.3,1.5c0,0.1-0.1,0.4-0.1,0.4C97.4,16.5,97,16.5,96.9,16.4z M99.3,23.2
				c-0.4-0.8-1.8-0.6-1.8-2c0.7,0.7,1.4,1.2,2,1.8C99.4,23.1,99.4,23.2,99.3,23.2z M99.9,13.2c0.8,0.3,0.8,0.8,0.7,1.4
				c-0.2-0.1-0.4-0.2-0.7-0.4c0,0.2-0.1,0.4-0.1,0.5c-0.1,1.5-0.4,1.7-2,1.5c0.6-0.2,0.6-0.8,0.8-1.3c0.3-0.4,0.5-0.9,0.1-1.5
				c-0.2-0.3,0-0.8,0.2-1.1c0.3-0.6,0.8-1.1,1.2-1.6c0.1-0.1,0.2-0.1,0.3-0.1c0.1,0,0.1,0.1,0.1,0.1c-0.3,0.4-0.6,0.9-1,1.2
				C99.3,12.5,99.3,13,99.9,13.2z M105,10.6c-0.2,0.2-0.4,0.4-0.6,0.7c-0.5-0.1-0.5-0.1-0.8-1.3c0.7,0.1,1.3,0.1,1.9,0.2
				C105.3,10.3,105.2,10.4,105,10.6z M111.4,29.9c-0.4-0.6-0.8-1.3-1.2-1.9c0.3-0.3,0.6-0.2,0.8,0.2c0.1,0.3,0.2,0.6,0.4,0.8
				c0.3,0.3,0.6,0.5,0.9,0.7C112.1,29.8,111.7,29.8,111.4,29.9z M109.5,1.8c0,0,0-0.3,0.1-0.4c0.4-0.5,0.9-0.5,1.2,0.1
				c-0.3,0.1-0.6,0.3-0.8,0.3C109.8,2,109.6,1.9,109.5,1.8z M120.8,35.7c0.2,0.4,0.4,0.6,0.7,1c-0.1,0.2-0.3,0.3-0.4,0.4
				c-0.1,0.1-0.3,0.1-0.4,0c-0.1-0.1-0.2-0.2-0.1-0.3C120.5,36.4,120.6,36.1,120.8,35.7z M65.8,32.4c0.3,0,0.7,0,1,0
				c0,0.1,0,0.2,0,0.4c-0.3,0-0.7,0-1,0C65.8,32.8,65.8,32.6,65.8,32.4z"/>
		</defs>
		<clipPath id="SVGID_00000005955583586031003990000003939159044904685441_">
			<use xlink:href="#SVGID_1_"  style="overflow:visible;"/>
		</clipPath>
		
			<path style="opacity:0.1;clip-path:url(#SVGID_00000005955583586031003990000003939159044904685441_);fill:#231F20;enable-background:new    ;" d="
			M168.2,40.5c0,2.2-2,3.9-4.5,3.9H9.4c-2.5,0-4.5-1.8-4.5-3.9V7.9c0-2.2,2-3.9,4.5-3.9h154.3c2.5,0,4.5,1.8,4.5,3.9L168.2,40.5
			L168.2,40.5z"/>
	</g>
</g>
<path id="XMLID_1_" class="st4" d="M31.3,4.9L31.3,4.9c-0.6-0.2-0.7-0.6-0.8-0.9c0-0.5,0.3-1,0.8-1.2c2.3-0.9,3.8,0.9,3.8,0.9
	l0.6-0.1c-1.2-1.5-2.7-1.7-3.9-1.5c-0.9,0.1-1.6,0.6-2.3,1.1c-1,0.9-1.8,0.7-1.8,0.7l0,0c-0.2,0-0.3,0-0.5,0
	c-5.5,0-9.9,4.5-9.9,10.1c0,2.7,1.1,5.2,2.8,7h0c1.6,1.6,1.3,3.2,1.3,3.2l0,0c-1.2,8.3-2.1,22.7,5.7,20.8l-0.2-0.2c0,0-7,1.2-4.1-19
	c0.1-0.6,0.6-2.2,2.5-1.9c0,0,0.1,0,0.1,0c0.1,0,0.1,0,0.2,0c0.2,0,0.3,0.1,0.4,0.1c0.4,0,0.8,0.1,1.2,0.1c5.5,0,9.9-4.5,9.9-10.1
	C37.1,10,34.7,6.5,31.3,4.9z"/>
<g>
	<g>
		
			<radialGradient id="SVGID_00000078732116957185869010000002004337170053265590_" cx="23.8944" cy="39.374" r="20.8478" gradientTransform="matrix(1 0 0 -1 0 60)" gradientUnits="userSpaceOnUse">
			<stop  offset="0" style="stop-color:#D0D2D3"/>
			<stop  offset="0.2253" style="stop-color:#C3C5C7"/>
			<stop  offset="0.639" style="stop-color:#A2A3A6"/>
			<stop  offset="1" style="stop-color:#808184"/>
		</radialGradient>
		<path style="fill:url(#SVGID_00000078732116957185869010000002004337170053265590_);" d="M47.1,10.3c3.3,9.8-6.5,21.6-21.2,26
			c-14.7,4.4-22.7-0.4-25.3-7.5c-2.2-5.9,2.7-16.9,16.3-22.3C29.9,1.3,44.4,2.2,47.1,10.3z"/>
		
			<linearGradient id="SVGID_00000157299630529769172040000010562265668933567418_" gradientUnits="userSpaceOnUse" x1="7.3539" y1="27.9732" x2="38.5407" y2="59.1599" gradientTransform="matrix(1 0 0 -1 0 60)">
			<stop  offset="0" style="stop-color:#FFFFFF"/>
			<stop  offset="1" style="stop-color:#E8E7E9"/>
		</linearGradient>
		<path style="opacity:0.2;fill:url(#SVGID_00000157299630529769172040000010562265668933567418_);enable-background:new    ;" d="
			M44.7,7.2c3.6,6.4-6.7,16.1-21.4,20.5C8.6,32.1,2.2,29.1,0.5,24c-1-3,5.5-13.4,16.3-17.5C30,1.5,42.4,3,44.7,7.2z"/>
		<path class="st7" d="M15,38.3c-7.1,0-12.2-3.5-12.3-9.9C2.6,14.2,18.5,2.8,31.8,3.3C44,3.6,43.3,13.7,32,19.1
			c-3.6,1.7-9,3.1-12.3,3c-2-0.1-2.3-1.1,0.1-1.1c2,0,7.1-1.2,11.3-3.4c11-6,6.1-13.4-2.3-9.6c-6.5,3-14,11.6-15.3,18.9
			c-0.8,4.7,1.2,8.3,6,8.1c8.4-0.1,23.1-12.5,28.7-17.8c1.8-1.8,1.8,0.4,0.7,1.3C39.8,27,28.2,38.2,15,38.3z"/>
	</g>
</g>
<path class="st8" d="M169.2,40c-7.2,6.8-15.7,10.2-21.2,10.8c1.9,2.2,4.2,4,6.8,5.5c5.4-0.8,12.6-3.7,19.8-9.2
	c0.8,1.6,1.6,2.6,2.4,4.3l2-14.5c-1.3-0.1-11.2-0.4-13.8-0.6C166.8,37.7,167.4,38.3,169.2,40z"/>
<g>
	<g>
		<path class="st9" d="M175.2,49.8c-0.8-1.7-1.6-2.7-2.4-4.3c-12.6,9.4-24.8,11.3-28.5,7.8l-1.3-1.5c-1.5-2.2-1.6-2.2-2.3-3.6
			l-0.1-0.3c2.4,3.4,16,0.7,26.9-9.5c-1.9-1.7-2.4-2.2-4.1-3.7c2.6,0.2,12.5,0.6,13.8,0.6L175.2,49.8z"/>
	</g>
</g>
<g>
	<g>
		<g>
			<text transform="matrix(1 0 0 1 70.2633 26.7101)" class="st10 st11 st12">eLITE</text>
		</g>
	</g>
</g>
<g>
	<g>
		<text transform="matrix(1 0 0 1 68.2821 38.7223)" class="st13 st14 st15 st16">MEMBER</text>
		<g>
			<text transform="matrix(1 0 0 1 68.2821 38.7223)" class="st10 st14 st15 st16">MEMBER</text>
		</g>
	</g>
</g>
</svg>
